<svg version="1.2" xmlns="http://www.w3.org/2000/svg" viewBox="0 0 772 288" width="772" height="288">
	<defs>
		<clipPath clipPathUnits="userSpaceOnUse" id="cp1">
			<path d="m-78-112h960v540h-960z"/>
		</clipPath>
		<linearGradient id="g1" x2="1" gradientUnits="userSpaceOnUse" gradientTransform="matrix(331.307,0,0,48.094,49.232,264.19)">
			<stop offset="0" stop-color="#14a6cd"/>
			<stop offset=".15" stop-color="#14a6cd"/>
			<stop offset=".21" stop-color="#910c4c"/>
			<stop offset=".46" stop-color="#910c4c"/>
			<stop offset=".53" stop-color="#164d91"/>
			<stop offset=".81" stop-color="#164d91"/>
			<stop offset=".85" stop-color="#b10e38"/>
			<stop offset="1" stop-color="#b10e38"/>
		</linearGradient>
	</defs>
	<style>
		.s0 { fill: url(#g1) } 
		.s1 { fill: none } 
		.s2 { fill: #910c4c } 
		.s3 { fill: #164d91 } 
		.s4 { fill: #512d6f } 
		.s5 { fill: #b10e38 } 
		.s6 { fill: #14a6cd } 
	</style>
	<g id="Clip-Path" clip-path="url(#cp1)">
		<g>
			<path fill-rule="evenodd" class="s0" d="m49.23 216.1h331.31v48.09h-331.31z"/>
			<path fill-rule="evenodd" class="s1" d="m-49.83-78.65h918.4v324.7h-918.4z"/>
			<path class="s2" d="m0.28 81.44q0-10.39 2.69-20.04 2.7-9.67 7.91-18.02 5.2-8.34 12.75-15.2 7.56-6.88 17.22-11.78 9.65-4.91 21.32-7.6 11.69-2.7 25.13-2.7 8.64 0 16.53 1.08 7.89 1.08 14.86 3 6.97 1.91 12.91 4.41 5.93 2.5 10.73 5.25l-8.44 16.48q-5.48-2.66-12.5-4.47-7.01-1.81-14.56-1.81-10.11 0-18.75 3.64-8.63 3.62-14.91 10.3-6.28 6.67-9.86 16.14-3.57 9.45-3.57 21.23 0 11.67 3.53 21.14 3.53 9.47 9.75 16.19 6.23 6.72 14.81 10.41 8.59 3.67 18.59 3.67 7.07 0 14.13-1.72 7.08-1.72 12.95-4.56l8.44 16.48q-4.8 2.84-10.69 5.3-5.89 2.45-12.76 4.37-6.86 1.91-14.71 2.99-7.84 1.07-16.48 1.07-20.11 0-36.25-5.93-16.14-5.94-27.42-16.19-11.28-10.25-17.32-23.94-6.03-13.69-6.03-29.19zm164.62-72.98h70.14q19.44-0.11 33.52 3.38 14.08 3.48 23.18 9.96 9.13 6.47 13.49 15.55 4.37 9.08 4.37 20.16 0 9.72-4.07 18.59-4.07 8.88-12.55 15.66-8.49 6.76-21.59 10.78-13.1 4.01-31.15 4.01h-18.64v47.69h-56.7zm56.7 76.72q6.77-0.11 12.07-2.11 5.29-2.01 8.92-5.59 3.64-3.58 5.55-8.63 1.92-5.06 1.92-11.34 0-6.17-1.97-11.17-1.95-5.02-5.64-8.6-3.67-3.58-8.92-5.64-5.25-2.06-11.93-2.26zm111.46-76.72h56.7v61.11h41.89v-61.11h56.81l-0.11 145.78h-56.7v-62.2h-41.89v62.2h-56.7z"/>
			<path class="s3" d="m566.06 45.24l-16.87-36.78h59.73l71.43 145.88h-64.07l-10.78-23.35h-57.5l-10.69 23.35h-24.82zm29.12 63.28l-18.44-40.03-18.34 40.03zm105.18-100.07h56.79l-0.09 145.79h-56.7z"/>
			<path fill-rule="evenodd" class="s1" d="m388.23 138.7h425.83v202.93h-425.83z"/>
			<path class="s4" d="m441.27 264.69l17.09-15.38q4.85-4.36 7.93-7.84 3.09-3.49 4.82-6.38 1.75-2.9 2.41-5.31 0.66-2.42 0.66-4.65 0-2.74-0.78-4.9-0.79-2.17-2.24-3.67-1.44-1.5-3.58-2.31-2.12-0.81-4.98-0.81-4.05 0-8.06 1.67-4.02 1.66-8.88 5.73l-7.17-11.23q3.48-3.03 6.97-5 3.5-1.97 7.79-3.45 4.3-1.49 9.21-2.35 4.9-0.86 10.29-0.86 7.43 0 13.25 1.69 5.85 1.69 9.96 4.74 4.11 3.03 6.26 7.23 2.16 4.2 2.16 9.05 0 4.73-2.14 9.48-2.13 4.74-6.36 9.31-4.23 4.57-10.59 8.97-6.35 4.39-7.36 4.88l6.34-0.52h20.36v22.36h-65.36l3.75-1.59-1.75 2.15zm77.83-27.7q0-9.14 2.47-16.39 2.49-7.25 7.36-12.31 4.89-5.07 12.05-7.69 7.17-2.64 16.42-2.64 9.25 0 16.41 2.64 7.17 2.62 12.04 7.69 4.89 5.06 7.36 12.31 2.49 7.25 2.49 16.39 0 9.14-2.49 16.39-2.47 7.25-7.36 12.31-4.87 5.07-12.04 7.71-7.16 2.64-16.41 2.64-9.25 0-16.42-2.64-7.16-2.64-12.05-7.71-4.87-5.06-7.36-12.31-2.47-7.25-2.47-16.39zm38.3 26.84q0.95 0 1.81-0.31 0.88-0.31 1.69-1.19 0.81-0.89 1.58-2.67 0.78-1.79 1.36-4.83 0.59-3.03 0.92-7.42 0.34-4.4 0.34-10.42 0-6.02-0.34-10.41-0.33-4.39-0.92-7.42-0.58-3.03-1.36-4.83-0.77-1.79-1.58-2.67-0.81-0.89-1.69-1.19-0.86-0.31-1.81-0.31-0.95 0-1.83 0.31-0.86 0.3-1.67 1.19-0.81 0.88-1.59 2.67-0.77 1.8-1.36 4.83-0.58 3.03-0.93 7.42-0.32 4.39-0.32 10.41 0 6.02 0.32 10.42 0.35 4.39 0.93 7.42 0.59 3.04 1.36 4.83 0.78 1.78 1.59 2.67 0.81 0.88 1.67 1.19 0.88 0.31 1.83 0.31zm51.64 0.86l17.09-15.37q4.85-4.36 7.93-7.85 3.09-3.48 4.82-6.37 1.75-2.91 2.41-5.31 0.66-2.42 0.66-4.66 0-2.73-0.79-4.89-0.78-2.17-2.23-3.67-1.44-1.5-3.58-2.31-2.12-0.82-4.98-0.82-4.05 0-8.06 1.68-4.02 1.65-8.88 5.73l-7.17-11.23q3.48-3.04 6.97-5 3.5-1.97 7.79-3.46 4.3-1.48 9.21-2.34 4.9-0.86 10.29-0.86 7.43 0 13.25 1.69 5.85 1.68 9.96 4.73 4.11 3.03 6.26 7.24 2.16 4.2 2.16 9.04 0 4.74-2.14 9.49-2.13 4.73-6.36 9.31-4.24 4.56-10.59 8.97-6.35 4.39-7.36 4.87l6.34-0.51h20.36v22.36h-65.36l3.75-1.6-1.75 2.16zm77.83-20.69q0-5.53 1.61-10.86 1.61-5.34 4.66-10.14 3.04-4.81 7.45-8.98 4.41-4.19 10-7.44 5.59-3.25 12.25-5.41 6.66-2.15 15.2-3.12l6.11 9.06q-6.56 2.41-10.32 4.55-3.75 2.12-6.63 4.86-2.86 2.72-4.89 6.14-2.02 3.42-2.3 4.42 0.22-0.11 4.13-0.98 3.9-0.88 8.69-0.88 7.06 0 12.6 1.83 5.57 1.83 9.43 5.06 3.86 3.22 5.89 7.58 2.03 4.36 2.03 9.26 0 5.8-2.75 10.82-2.75 5.01-7.78 8.68-5.03 3.66-12.05 5.74-7 2.08-15.67 2.08-6.75 0-12.16-1.27-5.4-1.28-9.64-3.51-4.22-2.24-7.23-5.32-3-3.07-4.92-6.68-1.91-3.61-2.82-7.55-0.89-3.94-0.89-7.94zm37.75 20.06q3.5 0 5.72-3.29 2.24-3.32 2.24-10.3 0-3.67-0.68-6.11-0.65-2.44-1.76-3.84-1.1-1.41-2.63-2.05-1.53-0.66-3.47-0.66-2.17 0-3.89 0.79-1.7 0.76-2.78 1.93-0.06 0.85-0.11 2.38-0.04 1.51-0.04 3.11 0 5.79 0.67 9.4 0.67 3.6 1.72 5.49 1.06 1.89 2.31 2.53 1.26 0.62 2.7 0.62z"/>
			<path fill-rule="evenodd" class="s5" d="m335.04 240.14c0-23.3 18.89-42.19 42.19-42.19 11.19 0 21.92 4.45 29.83 12.36 7.92 7.91 12.36 18.64 12.36 29.83 0 23.3-18.89 42.19-42.19 42.19-23.3 0-42.19-18.89-42.19-42.19z"/>
			<path fill-rule="evenodd" class="s6" d="m6.86 240.14c0-23.3 18.89-42.19 42.19-42.19 11.19 0 21.92 4.45 29.83 12.36 7.91 7.91 12.36 18.64 12.36 29.83 0 23.3-18.89 42.19-42.19 42.19-23.3 0-42.19-18.89-42.19-42.19z"/>
			<path fill-rule="evenodd" class="s2" d="m116.25 240.14c0-23.3 18.89-42.19 42.19-42.19 11.19 0 21.92 4.45 29.83 12.36 7.92 7.91 12.36 18.64 12.36 29.83 0 23.3-18.89 42.19-42.19 42.19-23.3 0-42.19-18.89-42.19-42.19z"/>
			<path fill-rule="evenodd" class="s3" d="m225.65 240.14c0-23.3 18.89-42.19 42.19-42.19 11.19 0 21.92 4.45 29.83 12.36 7.91 7.91 12.36 18.64 12.36 29.83 0 23.3-18.89 42.19-42.19 42.19-23.3 0-42.19-18.89-42.19-42.19z"/>
		</g>
	</g>
</svg>