<svg width="1124" height="234" viewBox="0 0 1124 234" fill="none" xmlns="http://www.w3.org/2000/svg">
<path d="M128.437 26.1298C134.939 25.8041 142.102 26.2168 148.611 26.0345C158.038 25.7704 156.325 43.2627 155.565 49.7265C160.277 49.6416 165.144 49.4657 169.843 49.4833C173.704 49.4978 176.487 50.6414 179.088 53.4403C180.435 58.425 179.891 70.9332 179.894 76.7429C179.894 77.6432 179.264 80.409 179.118 81.7528C173.91 85.0817 171.912 84.9865 165.852 84.8664C162.579 84.8015 159.06 84.8327 155.766 84.8133C155.839 89.9622 156.663 100.396 154.668 104.718C153.627 106.974 151.638 107.836 149.375 108.519C147.598 108.806 144.185 108.982 142.223 108.868C136.863 108.594 127.426 110.313 123.38 106.226C119.818 102.628 121.154 89.6734 121.14 84.6156C120.354 84.6969 119.566 84.749 118.776 84.7724C113.451 84.9146 102.739 86.003 99.3903 82.4482C97.0009 80.2901 97.1421 77.4804 97.115 74.4544C96.8817 48.3724 95.0198 49.4687 121.33 49.6998C121.24 48.6954 121.116 47.2109 121.185 46.2311C121.71 38.7477 118.009 27.7668 128.437 26.1298Z" fill="#4C0097"/>
<path d="M148.888 33.421C144.486 32.8286 134.26 32.9898 129.6 33.1389C128.833 33.3635 128.454 33.3049 128.197 33.9973C126.633 38.2084 129.614 53.9639 126.562 56.4116C123.841 57.3767 108.497 56.8842 104.218 57.0809C103.977 62.1356 103.876 73.0428 104.232 78.027C108.733 78.1223 113.235 78.1469 117.736 78.1003C120.753 78.0904 127.636 77.021 127.847 81.2754C128.185 88.0587 127.521 95.0672 128.061 101.841C134.309 102.007 142.542 102.087 148.783 101.858L148.825 101.615C149.544 97.2936 148.765 89.2547 149.042 84.626C149.186 82.2474 148.44 78.7323 151.347 78.4139C158.337 77.6484 165.742 78.3604 172.678 78.0273C172.795 73.744 173.727 59.8134 171.754 57.4482C169.708 55.8751 152.433 58.0153 149.866 56.279C148.765 55.533 149.069 35.8972 148.888 33.421Z" fill="white"/>
<path d="M37 28C41.5 16 40.4811 -0.000554799 17 0C-8.01903 5.40387 1.90579 39.2671 22.0006 37.0006C23.2095 36.8644 26.2858 35.6368 27.499 35.5006C32.7218 40.0677 36.1462 41.2754 42.8051 43.7338C57.3496 49.1035 72.6331 52.5351 88.1431 52.9991C89.5607 53.0414 91.0711 52.1585 92.14 51.327C96.3184 48.4877 100.849 46.5969 104.999 43.6753C84.1295 43.1817 56.3367 36.2839 37 28Z" fill="#090909"/>
<path d="M19.8696 9.07225C24.8236 8.44507 29.3408 11.9709 29.9351 16.9288C30.5296 21.8866 26.9741 26.3802 22.0126 26.9421C17.097 27.4986 12.654 23.9832 12.0649 19.0715C11.476 14.1598 14.9621 9.69374 19.8696 9.07225Z" fill="#FDFDFD"/>
<path d="M246.5 2.00034C252.426 1.74093 258.553 2.10033 264.5 2.00037C266.065 1.9741 269.366 2.49365 271 3C272.196 3.92407 273.821 7.50004 274 9C274.079 9.64323 274.558 14.7484 274.5 15.5C274.176 19.7187 275.388 27.9518 273 31C269.195 35.8577 256.425 32.3346 251.217 34.0661C247.4 35.3342 243.822 39.5909 239.885 41.1419C226.401 47.7496 212.811 50.0221 198.072 51.3088C195.096 51.6193 191.425 52.3543 188.495 51.8131C186.634 51.4692 174.149 44.0259 172 42.5673C175.145 42.4211 178.383 42.4755 181.549 42.3628C201.803 41.6429 221.648 39.3208 239 28.0064C239.563 21.5587 238.574 11.3531 239.885 5.00597C240.312 2.93829 244.536 2.51734 246.5 2.00034Z" fill="#090909"/>
<path d="M249 10.0333C254.603 9.95852 260.379 10.0324 266 10.0374L265.963 25.9742L249.003 26L249 10.0333Z" fill="#FDFDFD"/>
<path d="M77.4489 142.511C78.3836 144.338 79.0981 146.751 80.6799 148.139C84.449 151.448 89.761 153.488 94.437 155.171C100.618 157.38 106.997 159 113.489 160.009C134.614 163.233 167.916 162.002 187.514 153.075C190.474 151.727 194.571 149.551 196.795 147.187C198.792 145.019 198.381 142.62 201.508 141.412C207.58 139.069 206.161 147.341 204.866 150.478C202.241 155.013 198.014 158.064 193.452 160.515C169.715 173.271 123.139 173.5 97.5784 165.966C88.9095 163.411 76.8201 159.343 72.2751 150.804C70.5074 147.483 70.7897 144.551 71.8399 141.098C73.9088 141.396 75.5143 141.697 77.4489 142.511Z" fill="#090909"/>
<path d="M35.2528 50.0051C38.1401 49.8508 43.2822 53.2091 46.0722 54.7092C38.8995 57.698 27.5412 59.3235 23.8719 67.2149C21.8316 72.771 29.6955 77.2374 33.6024 79.1079C57.3229 90.4651 84.2901 93.0706 110.032 95.5707C111.785 95.7411 114.386 103.028 115 104.732C112.819 105.484 103.847 104.442 101.156 104.194C76.713 101.944 51.5541 98.5382 29.1542 87.6756C23.3776 84.8742 16.8517 80.6154 14.7249 74.141C13.5886 70.682 13.7644 66.3647 15.4208 63.1031C18.9023 56.2481 28.4344 52.2023 35.2528 50.0051Z" fill="#090909"/>
<path d="M240.531 51.0325C246.113 50.5244 255.035 56.0846 259.391 59.4919C262.13 61.6368 263.927 65.8878 263.997 69.4194C264.075 73.5385 262.74 77.1468 259.826 80.126C240.407 98.3648 188.928 104.033 163.955 104.986C163.499 105.034 163.46 104.955 163.028 104.758C162.663 102.509 165.958 97.1567 167.544 95.457C189.943 93.9186 216.583 90.1891 238.218 82.703C241.616 81.5276 253.099 73.9649 254.075 70.8592C256.666 62.6259 236.946 56.9949 232.032 55.2769C234.24 53.9616 238.121 52.2107 240.531 51.0325Z" fill="#090909"/>
<path d="M163.087 195L163.846 195.216C166.86 199.325 163.252 210.852 161.183 215.013C157.192 223.041 151.87 229.524 143.205 232.434C139.205 233.775 133.366 234.711 129.273 233.291C128.536 232.913 127.798 232.002 127.676 231.191C127.024 226.845 130.827 227.101 133.557 226.412C142 224.275 148.015 219.63 152.524 212.147C151.343 212.638 150.069 213.08 148.861 213.522C140.744 215.808 127.293 215.229 119.94 210.733C116.984 208.972 113.411 206.259 112.577 202.711C112.175 201.001 110.999 195.482 113.908 195.317C117.739 195.101 120.044 199.935 123.024 201.745C131.676 207.003 144.994 206.445 153.659 201.459C157.792 198.904 157.057 196.256 163.087 195Z" fill="#090909"/>
<path d="M94.7484 170.018C100.55 170.157 101.308 173.847 105.321 176.773C107.117 178.083 112.066 180.177 114.257 180.828C132.422 186.216 151.498 186.505 168.704 177.623C170.209 176.786 171.947 175.829 173.195 174.648C175.308 172.646 178.131 169.113 181.462 170.205C182.102 171.172 182.677 174.336 183 175.7L180.915 178.891C178.914 181.917 176.375 183.878 173.244 185.629C156.702 194.878 134.543 196.067 116.512 191.138C109.971 189.35 98.5874 184.736 95.2305 178.44C93.557 175.301 93.7894 173.231 94.7484 170.018Z" fill="#090909"/>
<path d="M355.256 70.96C350.648 70.96 346.669 69.9573 343.32 67.952C339.992 65.9467 337.421 63.1413 335.608 59.536C333.816 55.9307 332.92 51.7387 332.92 46.96C332.92 42.1813 333.816 37.9893 335.608 34.384C337.421 30.7787 339.992 27.9733 343.32 25.968C346.669 23.9627 350.648 22.96 355.256 22.96C360.547 22.96 364.984 24.272 368.568 26.896C372.173 29.52 374.712 33.072 376.184 37.552L367.416 39.984C366.563 37.1893 365.123 35.024 363.096 33.488C361.069 31.9307 358.456 31.152 355.256 31.152C352.333 31.152 349.891 31.8027 347.928 33.104C345.987 34.4053 344.525 36.24 343.544 38.608C342.563 40.976 342.072 43.76 342.072 46.96C342.072 50.16 342.563 52.944 343.544 55.312C344.525 57.68 345.987 59.5147 347.928 60.816C349.891 62.1173 352.333 62.768 355.256 62.768C358.456 62.768 361.069 61.9893 363.096 60.432C365.123 58.8747 366.563 56.7093 367.416 53.936L376.184 56.368C374.712 60.848 372.173 64.4 368.568 67.024C364.984 69.648 360.547 70.96 355.256 70.96ZM398.782 70.96C395.305 70.96 392.254 70.1813 389.63 68.624C387.006 67.0667 384.958 64.9227 383.486 62.192C382.035 59.44 381.31 56.2827 381.31 52.72C381.31 49.1147 382.057 45.9467 383.55 43.216C385.043 40.464 387.102 38.32 389.726 36.784C392.35 35.248 395.369 34.48 398.782 34.48C402.259 34.48 405.31 35.2587 407.934 36.816C410.579 38.3733 412.638 40.528 414.11 43.28C415.582 46.0107 416.318 49.1573 416.318 52.72C416.318 56.304 415.571 59.472 414.078 62.224C412.606 64.9547 410.547 67.0987 407.902 68.656C405.278 70.192 402.238 70.96 398.782 70.96ZM398.782 62.832C401.577 62.832 403.657 61.8933 405.022 60.016C406.409 58.1173 407.102 55.6853 407.102 52.72C407.102 49.648 406.398 47.1947 404.99 45.36C403.603 43.5253 401.534 42.608 398.782 42.608C396.883 42.608 395.326 43.0347 394.11 43.888C392.894 44.7413 391.987 45.9253 391.39 47.44C390.814 48.9547 390.526 50.7147 390.526 52.72C390.526 55.8133 391.219 58.2773 392.606 60.112C394.014 61.9253 396.073 62.832 398.782 62.832ZM446.907 70V53.68C446.907 52.8907 446.864 51.888 446.779 50.672C446.694 49.4347 446.427 48.1973 445.979 46.96C445.531 45.7227 444.795 44.688 443.771 43.856C442.768 43.024 441.339 42.608 439.483 42.608C438.736 42.608 437.936 42.7253 437.083 42.96C436.23 43.1947 435.43 43.6533 434.683 44.336C433.936 44.9973 433.318 45.9787 432.827 47.28C432.358 48.5813 432.123 50.3093 432.123 52.464L427.131 50.096C427.131 47.3653 427.686 44.8053 428.795 42.416C429.904 40.0267 431.568 38.096 433.787 36.624C436.027 35.152 438.843 34.416 442.235 34.416C444.944 34.416 447.152 34.8747 448.859 35.792C450.566 36.7093 451.888 37.872 452.827 39.28C453.787 40.688 454.47 42.16 454.875 43.696C455.28 45.2107 455.526 46.5973 455.611 47.856C455.696 49.1147 455.739 50.032 455.739 50.608V70H446.907ZM423.291 70V35.44H431.035V46.896H432.123V70H423.291ZM473.387 70L460.843 35.44H469.547L477.739 59.376L485.931 35.44H494.635L482.091 70H473.387ZM515.232 70.96C511.69 70.96 508.565 70.2027 505.856 68.688C503.168 67.152 501.056 65.0507 499.52 62.384C498.005 59.696 497.248 56.624 497.248 53.168C497.248 49.392 497.994 46.1067 499.488 43.312C500.981 40.5173 503.04 38.352 505.664 36.816C508.288 35.2587 511.306 34.48 514.72 34.48C518.346 34.48 521.429 35.3333 523.968 37.04C526.506 38.7467 528.384 41.1467 529.6 44.24C530.816 47.3333 531.242 50.9707 530.88 55.152H522.272V51.952C522.272 48.432 521.706 45.904 520.576 44.368C519.466 42.8107 517.642 42.032 515.104 42.032C512.138 42.032 509.952 42.9387 508.544 44.752C507.157 46.544 506.464 49.2 506.464 52.72C506.464 55.9413 507.157 58.4373 508.544 60.208C509.952 61.9573 512.01 62.832 514.72 62.832C516.426 62.832 517.888 62.4587 519.104 61.712C520.32 60.9653 521.248 59.888 521.888 58.48L530.592 60.976C529.29 64.1333 527.232 66.5867 524.416 68.336C521.621 70.0853 518.56 70.96 515.232 70.96ZM503.776 55.152V48.688H526.688V55.152H503.776ZM538.105 70V35.44H545.785V43.888L544.953 42.8C545.401 41.6053 545.998 40.5173 546.745 39.536C547.492 38.5547 548.409 37.744 549.497 37.104C550.329 36.592 551.236 36.1973 552.217 35.92C553.198 35.6213 554.212 35.44 555.257 35.376C556.302 35.2907 557.348 35.312 558.393 35.44V43.568C557.433 43.2693 556.313 43.1733 555.033 43.28C553.774 43.3653 552.633 43.6533 551.609 44.144C550.585 44.6133 549.721 45.2427 549.017 46.032C548.313 46.8 547.78 47.7173 547.417 48.784C547.054 49.8293 546.873 51.0133 546.873 52.336V70H538.105ZM578.014 86.32C576.051 86.32 574.185 86 572.414 85.36C570.643 84.7413 569.054 83.8667 567.646 82.736C566.259 81.6267 565.129 80.3253 564.254 78.832L572.318 74.928C572.873 75.952 573.662 76.7307 574.686 77.264C575.731 77.7973 576.862 78.064 578.078 78.064C579.379 78.064 580.606 77.84 581.758 77.392C582.91 76.9653 583.827 76.3147 584.51 75.44C585.214 74.5867 585.545 73.52 585.502 72.24V62.192H586.59V35.44H594.206V72.368C594.206 73.2213 594.163 74.0213 594.078 74.768C594.014 75.536 593.886 76.2933 593.694 77.04C593.139 79.152 592.105 80.8907 590.59 82.256C589.097 83.6213 587.262 84.6347 585.086 85.296C582.91 85.9787 580.553 86.32 578.014 86.32ZM577.246 70.96C574.067 70.96 571.283 70.16 568.894 68.56C566.505 66.96 564.638 64.784 563.294 62.032C561.971 59.28 561.31 56.176 561.31 52.72C561.31 49.2 561.982 46.0747 563.326 43.344C564.691 40.592 566.601 38.4267 569.054 36.848C571.507 35.2693 574.387 34.48 577.694 34.48C580.979 34.48 583.742 35.28 585.982 36.88C588.222 38.48 589.918 40.656 591.07 43.408C592.222 46.16 592.798 49.264 592.798 52.72C592.798 56.176 592.211 59.28 591.038 62.032C589.886 64.784 588.158 66.96 585.854 68.56C583.55 70.16 580.681 70.96 577.246 70.96ZM578.654 63.216C580.595 63.216 582.142 62.7787 583.294 61.904C584.467 61.0293 585.31 59.8027 585.822 58.224C586.334 56.6453 586.59 54.8107 586.59 52.72C586.59 50.6293 586.334 48.7947 585.822 47.216C585.31 45.6373 584.489 44.4107 583.358 43.536C582.249 42.6613 580.787 42.224 578.974 42.224C577.033 42.224 575.433 42.704 574.174 43.664C572.937 44.6027 572.019 45.872 571.422 47.472C570.825 49.0507 570.526 50.8 570.526 52.72C570.526 54.6613 570.814 56.432 571.39 58.032C571.966 59.6107 572.851 60.8693 574.046 61.808C575.241 62.7467 576.777 63.216 578.654 63.216ZM603.808 30.64V22.96H612.512V30.64H603.808ZM603.808 70V35.44H612.512V70H603.808ZM645.657 70V53.68C645.657 52.8907 645.614 51.888 645.529 50.672C645.444 49.4347 645.177 48.1973 644.729 46.96C644.281 45.7227 643.545 44.688 642.521 43.856C641.518 43.024 640.089 42.608 638.233 42.608C637.486 42.608 636.686 42.7253 635.833 42.96C634.98 43.1947 634.18 43.6533 633.433 44.336C632.686 44.9973 632.068 45.9787 631.577 47.28C631.108 48.5813 630.873 50.3093 630.873 52.464L625.881 50.096C625.881 47.3653 626.436 44.8053 627.545 42.416C628.654 40.0267 630.318 38.096 632.537 36.624C634.777 35.152 637.593 34.416 640.985 34.416C643.694 34.416 645.902 34.8747 647.609 35.792C649.316 36.7093 650.638 37.872 651.577 39.28C652.537 40.688 653.22 42.16 653.625 43.696C654.03 45.2107 654.276 46.5973 654.361 47.856C654.446 49.1147 654.489 50.032 654.489 50.608V70H645.657ZM622.041 70V35.44H629.785V46.896H630.873V70H622.041ZM677.577 86.32C675.614 86.32 673.747 86 671.977 85.36C670.206 84.7413 668.617 83.8667 667.209 82.736C665.822 81.6267 664.691 80.3253 663.817 78.832L671.881 74.928C672.435 75.952 673.225 76.7307 674.249 77.264C675.294 77.7973 676.425 78.064 677.641 78.064C678.942 78.064 680.169 77.84 681.321 77.392C682.473 76.9653 683.39 76.3147 684.073 75.44C684.777 74.5867 685.107 73.52 685.065 72.24V62.192H686.153V35.44H693.769V72.368C693.769 73.2213 693.726 74.0213 693.641 74.768C693.577 75.536 693.449 76.2933 693.257 77.04C692.702 79.152 691.667 80.8907 690.153 82.256C688.659 83.6213 686.825 84.6347 684.649 85.296C682.473 85.9787 680.115 86.32 677.577 86.32ZM676.809 70.96C673.63 70.96 670.846 70.16 668.457 68.56C666.067 66.96 664.201 64.784 662.857 62.032C661.534 59.28 660.873 56.176 660.873 52.72C660.873 49.2 661.545 46.0747 662.889 43.344C664.254 40.592 666.163 38.4267 668.617 36.848C671.07 35.2693 673.95 34.48 677.257 34.48C680.542 34.48 683.305 35.28 685.545 36.88C687.785 38.48 689.481 40.656 690.632 43.408C691.785 46.16 692.361 49.264 692.361 52.72C692.361 56.176 691.774 59.28 690.601 62.032C689.449 64.784 687.721 66.96 685.417 68.56C683.113 70.16 680.243 70.96 676.809 70.96ZM678.217 63.216C680.158 63.216 681.705 62.7787 682.857 61.904C684.03 61.0293 684.873 59.8027 685.385 58.224C685.897 56.6453 686.153 54.8107 686.153 52.72C686.153 50.6293 685.897 48.7947 685.385 47.216C684.873 45.6373 684.051 44.4107 682.921 43.536C681.811 42.6613 680.35 42.224 678.537 42.224C676.595 42.224 674.995 42.704 673.737 43.664C672.499 44.6027 671.582 45.872 670.985 47.472C670.387 49.0507 670.089 50.8 670.089 52.72C670.089 54.6613 670.377 56.432 670.953 58.032C671.529 59.6107 672.414 60.8693 673.609 61.808C674.803 62.7467 676.339 63.216 678.217 63.216ZM715.543 70V23.92H734.999C735.447 23.92 736.044 23.9413 736.791 23.984C737.559 24.0053 738.241 24.0693 738.839 24.176C741.591 24.6027 743.841 25.5093 745.59 26.896C747.361 28.2827 748.663 30.032 749.495 32.144C750.327 34.2347 750.743 36.5707 750.743 39.152C750.743 41.7333 750.316 44.08 749.463 46.192C748.631 48.2827 747.329 50.0213 745.559 51.408C743.809 52.7947 741.569 53.7013 738.839 54.128C738.241 54.2133 737.559 54.2773 736.791 54.32C736.023 54.3627 735.425 54.384 734.999 54.384H724.247V70H715.543ZM724.247 46.256H734.615C735.063 46.256 735.553 46.2347 736.087 46.192C736.62 46.1493 737.111 46.064 737.559 45.936C738.732 45.616 739.639 45.0827 740.279 44.336C740.919 43.568 741.356 42.7253 741.591 41.808C741.847 40.8693 741.975 39.984 741.975 39.152C741.975 38.32 741.847 37.4453 741.591 36.528C741.356 35.5893 740.919 34.7467 740.279 34C739.639 33.232 738.732 32.688 737.559 32.368C737.111 32.24 736.62 32.1547 736.087 32.112C735.553 32.0693 735.063 32.048 734.615 32.048H724.247V46.256ZM772.607 70.96C769.065 70.96 765.94 70.2027 763.231 68.688C760.543 67.152 758.431 65.0507 756.895 62.384C755.38 59.696 754.623 56.624 754.623 53.168C754.623 49.392 755.369 46.1067 756.863 43.312C758.356 40.5173 760.415 38.352 763.039 36.816C765.663 35.2587 768.681 34.48 772.095 34.48C775.721 34.48 778.804 35.3333 781.343 37.04C783.881 38.7467 785.759 41.1467 786.975 44.24C788.191 47.3333 788.617 50.9707 788.255 55.152H779.647V51.952C779.647 48.432 779.081 45.904 777.951 44.368C776.841 42.8107 775.017 42.032 772.479 42.032C769.513 42.032 767.327 42.9387 765.919 44.752C764.532 46.544 763.839 49.2 763.839 52.72C763.839 55.9413 764.532 58.4373 765.919 60.208C767.327 61.9573 769.385 62.832 772.095 62.832C773.801 62.832 775.263 62.4587 776.479 61.712C777.695 60.9653 778.623 59.888 779.263 58.48L787.967 60.976C786.665 64.1333 784.607 66.5867 781.791 68.336C778.996 70.0853 775.935 70.96 772.607 70.96ZM761.151 55.152V48.688H784.062V55.152H761.151ZM795.48 70V35.44H803.16V43.888L802.328 42.8C802.776 41.6053 803.373 40.5173 804.12 39.536C804.867 38.5547 805.784 37.744 806.872 37.104C807.704 36.592 808.611 36.1973 809.592 35.92C810.573 35.6213 811.587 35.44 812.632 35.376C813.677 35.2907 814.723 35.312 815.768 35.44V43.568C814.808 43.2693 813.688 43.1733 812.408 43.28C811.149 43.3653 810.008 43.6533 808.984 44.144C807.96 44.6133 807.096 45.2427 806.392 46.032C805.688 46.8 805.155 47.7173 804.792 48.784C804.429 49.8293 804.248 51.0133 804.248 52.336V70H795.48ZM834.109 70.96C829.757 70.96 826.237 69.9787 823.549 68.016C820.882 66.032 819.261 63.2373 818.685 59.632L827.581 58.288C827.944 59.9093 828.744 61.1787 829.981 62.096C831.24 63.0133 832.829 63.472 834.749 63.472C836.328 63.472 837.544 63.1733 838.397 62.576C839.25 61.9573 839.677 61.104 839.677 60.016C839.677 59.3333 839.506 58.7893 839.165 58.384C838.824 57.9573 838.056 57.5413 836.861 57.136C835.688 56.7307 833.853 56.1973 831.357 55.536C828.541 54.8107 826.29 54 824.605 53.104C822.92 52.208 821.704 51.1413 820.957 49.904C820.21 48.6453 819.837 47.1307 819.837 45.36C819.837 43.1413 820.402 41.2213 821.533 39.6C822.664 37.9573 824.253 36.6987 826.301 35.824C828.37 34.928 830.802 34.48 833.597 34.48C836.306 34.48 838.706 34.896 840.797 35.728C842.888 36.56 844.573 37.744 845.853 39.28C847.154 40.816 847.954 42.6293 848.253 44.72L839.357 46.32C839.208 45.04 838.653 44.0267 837.693 43.28C836.733 42.5333 835.432 42.096 833.789 41.968C832.189 41.8613 830.898 42.0747 829.917 42.608C828.957 43.1413 828.477 43.9093 828.477 44.912C828.477 45.5093 828.68 46.0107 829.085 46.416C829.512 46.8213 830.376 47.2373 831.677 47.664C833 48.0907 835.005 48.6453 837.693 49.328C840.317 50.0107 842.418 50.8107 843.997 51.728C845.597 52.624 846.76 53.712 847.485 54.992C848.21 56.2507 848.573 57.776 848.573 59.568C848.573 63.1093 847.293 65.8933 844.733 67.92C842.173 69.9467 838.632 70.96 834.109 70.96ZM872.565 70.96C869.13 70.96 866.261 70.16 863.957 68.56C861.653 66.96 859.914 64.784 858.741 62.032C857.589 59.28 857.013 56.176 857.013 52.72C857.013 49.264 857.589 46.16 858.741 43.408C859.893 40.656 861.589 38.48 863.829 36.88C866.069 35.28 868.832 34.48 872.117 34.48C875.424 34.48 878.304 35.2693 880.757 36.848C883.21 38.4267 885.109 40.592 886.453 43.344C887.818 46.0747 888.501 49.2 888.501 52.72C888.501 56.176 887.829 59.28 886.485 62.032C885.162 64.784 883.306 66.96 880.917 68.56C878.528 70.16 875.744 70.96 872.565 70.96ZM855.541 85.36V35.44H863.221V59.12H864.309V85.36H855.541ZM871.157 63.216C873.034 63.216 874.57 62.7467 875.765 61.808C876.96 60.8693 877.845 59.6107 878.421 58.032C878.997 56.432 879.285 54.6613 879.285 52.72C879.285 50.8 878.986 49.0507 878.389 47.472C877.792 45.872 876.864 44.6027 875.605 43.664C874.368 42.704 872.778 42.224 870.837 42.224C869.024 42.224 867.552 42.6613 866.421 43.536C865.312 44.4107 864.501 45.6373 863.989 47.216C863.477 48.7947 863.221 50.6293 863.221 52.72C863.221 54.8107 863.477 56.6453 863.989 58.224C864.501 59.8027 865.333 61.0293 866.485 61.904C867.658 62.7787 869.216 63.216 871.157 63.216ZM911.607 70.96C908.065 70.96 904.94 70.2027 902.231 68.688C899.543 67.152 897.431 65.0507 895.895 62.384C894.38 59.696 893.623 56.624 893.623 53.168C893.623 49.392 894.369 46.1067 895.863 43.312C897.356 40.5173 899.415 38.352 902.039 36.816C904.663 35.2587 907.681 34.48 911.095 34.48C914.721 34.48 917.804 35.3333 920.343 37.04C922.881 38.7467 924.759 41.1467 925.975 44.24C927.191 47.3333 927.617 50.9707 927.255 55.152H918.647V51.952C918.647 48.432 918.081 45.904 916.951 44.368C915.841 42.8107 914.017 42.032 911.479 42.032C908.513 42.032 906.327 42.9387 904.919 44.752C903.532 46.544 902.839 49.2 902.839 52.72C902.839 55.9413 903.532 58.4373 904.919 60.208C906.327 61.9573 908.385 62.832 911.095 62.832C912.801 62.832 914.263 62.4587 915.479 61.712C916.695 60.9653 917.623 59.888 918.263 58.48L926.967 60.976C925.665 64.1333 923.607 66.5867 920.791 68.336C917.996 70.0853 914.935 70.96 911.607 70.96ZM900.151 55.152V48.688H923.062V55.152H900.151ZM949.712 70.96C946.128 70.96 943.056 70.16 940.496 68.56C937.936 66.96 935.973 64.784 934.608 62.032C933.243 59.28 932.56 56.176 932.56 52.72C932.56 49.2213 933.264 46.096 934.672 43.344C936.101 40.592 938.107 38.4267 940.688 36.848C943.269 35.2693 946.32 34.48 949.84 34.48C953.915 34.48 957.328 35.5147 960.08 37.584C962.853 39.632 964.624 42.4373 965.392 46L956.688 48.304C956.176 46.512 955.28 45.1147 954 44.112C952.741 43.1093 951.312 42.608 949.712 42.608C947.877 42.608 946.373 43.056 945.2 43.952C944.027 44.8267 943.163 46.032 942.608 47.568C942.053 49.0827 941.776 50.8 941.776 52.72C941.776 55.728 942.437 58.1707 943.76 60.048C945.104 61.904 947.088 62.832 949.712 62.832C951.675 62.832 953.168 62.384 954.192 61.488C955.216 60.592 955.984 59.312 956.496 57.648L965.392 59.504C964.411 63.1733 962.555 66 959.824 67.984C957.093 69.968 953.723 70.96 949.712 70.96ZM992.529 70C990.139 70.448 987.793 70.64 985.489 70.576C983.206 70.5333 981.158 70.1387 979.345 69.392C977.553 68.624 976.187 67.3973 975.249 65.712C974.395 64.1333 973.947 62.5333 973.905 60.912C973.862 59.2693 973.841 57.4133 973.841 55.344V25.84H982.545V54.832C982.545 56.176 982.555 57.392 982.577 58.48C982.619 59.5467 982.843 60.4 983.249 61.04C984.017 62.256 985.243 62.9173 986.929 63.024C988.614 63.1307 990.481 63.0453 992.529 62.768V70ZM967.953 42.16V35.44H992.529V42.16H967.953ZM1000.87 30.64V22.96H1009.57V30.64H1000.87ZM1000.87 70V35.44H1009.57V70H1000.87ZM1028.51 70L1015.97 35.44H1024.67L1032.86 59.376L1041.06 35.44H1049.76L1037.22 70H1028.51ZM1070.36 70.96C1066.82 70.96 1063.69 70.2027 1060.98 68.688C1058.29 67.152 1056.18 65.0507 1054.64 62.384C1053.13 59.696 1052.37 56.624 1052.37 53.168C1052.37 49.392 1053.12 46.1067 1054.61 43.312C1056.11 40.5173 1058.16 38.352 1060.79 36.816C1063.41 35.2587 1066.43 34.48 1069.84 34.48C1073.47 34.48 1076.55 35.3333 1079.09 37.04C1081.63 38.7467 1083.51 41.1467 1084.72 44.24C1085.94 47.3333 1086.37 50.9707 1086 55.152H1077.4V51.952C1077.4 48.432 1076.83 45.904 1075.7 44.368C1074.59 42.8107 1072.77 42.032 1070.23 42.032C1067.26 42.032 1065.08 42.9387 1063.67 44.752C1062.28 46.544 1061.59 49.2 1061.59 52.72C1061.59 55.9413 1062.28 58.4373 1063.67 60.208C1065.08 61.9573 1067.14 62.832 1069.84 62.832C1071.55 62.832 1073.01 62.4587 1074.23 61.712C1075.44 60.9653 1076.37 59.888 1077.01 58.48L1085.72 60.976C1084.42 64.1333 1082.36 66.5867 1079.54 68.336C1076.75 70.0853 1073.68 70.96 1070.36 70.96ZM1058.9 55.152V48.688H1081.81V55.152H1058.9ZM1106.73 70.96C1102.38 70.96 1098.86 69.9787 1096.17 68.016C1093.51 66.032 1091.89 63.2373 1091.31 59.632L1100.21 58.288C1100.57 59.9093 1101.37 61.1787 1102.61 62.096C1103.86 63.0133 1105.45 63.472 1107.37 63.472C1108.95 63.472 1110.17 63.1733 1111.02 62.576C1111.88 61.9573 1112.3 61.104 1112.3 60.016C1112.3 59.3333 1112.13 58.7893 1111.79 58.384C1111.45 57.9573 1110.68 57.5413 1109.49 57.136C1108.31 56.7307 1106.48 56.1973 1103.98 55.536C1101.17 54.8107 1098.92 54 1097.23 53.104C1095.54 52.208 1094.33 51.1413 1093.58 49.904C1092.84 48.6453 1092.46 47.1307 1092.46 45.36C1092.46 43.1413 1093.03 41.2213 1094.16 39.6C1095.29 37.9573 1096.88 36.6987 1098.93 35.824C1101 34.928 1103.43 34.48 1106.22 34.48C1108.93 34.48 1111.33 34.896 1113.42 35.728C1115.51 36.56 1117.2 37.744 1118.48 39.28C1119.78 40.816 1120.58 42.6293 1120.88 44.72L1111.98 46.32C1111.83 45.04 1111.28 44.0267 1110.32 43.28C1109.36 42.5333 1108.06 42.096 1106.41 41.968C1104.81 41.8613 1103.52 42.0747 1102.54 42.608C1101.58 43.1413 1101.1 43.9093 1101.1 44.912C1101.1 45.5093 1101.3 46.0107 1101.71 46.416C1102.14 46.8213 1103 47.2373 1104.3 47.664C1105.62 48.0907 1107.63 48.6453 1110.32 49.328C1112.94 50.0107 1115.04 50.8107 1116.62 51.728C1118.22 52.624 1119.38 53.712 1120.11 54.992C1120.84 56.2507 1121.2 57.776 1121.2 59.568C1121.2 63.1093 1119.92 65.8933 1117.36 67.92C1114.8 69.9467 1111.26 70.96 1106.73 70.96ZM351.032 157.96C347.555 157.96 344.504 157.181 341.88 155.624C339.256 154.067 337.208 151.923 335.736 149.192C334.285 146.44 333.56 143.283 333.56 139.72C333.56 136.115 334.307 132.947 335.8 130.216C337.293 127.464 339.352 125.32 341.976 123.784C344.6 122.248 347.619 121.48 351.032 121.48C354.509 121.48 357.56 122.259 360.184 123.816C362.829 125.373 364.888 127.528 366.36 130.28C367.832 133.011 368.568 136.157 368.568 139.72C368.568 143.304 367.821 146.472 366.328 149.224C364.856 151.955 362.797 154.099 360.152 155.656C357.528 157.192 354.488 157.96 351.032 157.96ZM351.032 149.832C353.827 149.832 355.907 148.893 357.272 147.016C358.659 145.117 359.352 142.685 359.352 139.72C359.352 136.648 358.648 134.195 357.24 132.36C355.853 130.525 353.784 129.608 351.032 129.608C349.133 129.608 347.576 130.035 346.36 130.888C345.144 131.741 344.237 132.925 343.64 134.44C343.064 135.955 342.776 137.715 342.776 139.72C342.776 142.813 343.469 145.277 344.856 147.112C346.264 148.925 348.323 149.832 351.032 149.832ZM399.157 157V140.68C399.157 139.891 399.114 138.888 399.029 137.672C398.944 136.435 398.677 135.197 398.229 133.96C397.781 132.723 397.045 131.688 396.021 130.856C395.018 130.024 393.589 129.608 391.733 129.608C390.986 129.608 390.186 129.725 389.333 129.96C388.48 130.195 387.68 130.653 386.933 131.336C386.186 131.997 385.568 132.979 385.077 134.28C384.608 135.581 384.373 137.309 384.373 139.464L379.381 137.096C379.381 134.365 379.936 131.805 381.045 129.416C382.154 127.027 383.818 125.096 386.037 123.624C388.277 122.152 391.093 121.416 394.485 121.416C397.194 121.416 399.402 121.875 401.109 122.792C402.816 123.709 404.138 124.872 405.077 126.28C406.037 127.688 406.72 129.16 407.125 130.696C407.53 132.211 407.776 133.597 407.861 134.856C407.946 136.115 407.989 137.032 407.989 137.608V157H399.157ZM375.541 157V122.44H383.285V133.896H384.373V157H375.541ZM429.105 157V110.92H437.809V129.864H458.417V110.92H467.121V157H458.417V137.992H437.809V157H429.105ZM492.169 157.96C488.628 157.96 485.502 157.203 482.793 155.688C480.105 154.152 477.993 152.051 476.457 149.384C474.942 146.696 474.185 143.624 474.185 140.168C474.185 136.392 474.932 133.107 476.425 130.312C477.918 127.517 479.977 125.352 482.601 123.816C485.225 122.259 488.244 121.48 491.657 121.48C495.284 121.48 498.366 122.333 500.905 124.04C503.444 125.747 505.321 128.147 506.537 131.24C507.753 134.333 508.18 137.971 507.817 142.152H499.209V138.952C499.209 135.432 498.644 132.904 497.513 131.368C496.404 129.811 494.58 129.032 492.041 129.032C489.076 129.032 486.889 129.939 485.481 131.752C484.094 133.544 483.401 136.2 483.401 139.72C483.401 142.941 484.094 145.437 485.481 147.208C486.889 148.957 488.948 149.832 491.657 149.832C493.364 149.832 494.825 149.459 496.041 148.712C497.257 147.965 498.185 146.888 498.825 145.48L507.529 147.976C506.228 151.133 504.169 153.587 501.353 155.336C498.558 157.085 495.497 157.96 492.169 157.96ZM480.713 142.152V135.688H503.625V142.152H480.713ZM524.018 157.96C521.543 157.96 519.442 157.491 517.714 156.552C516.007 155.592 514.706 154.323 513.81 152.744C512.935 151.144 512.498 149.384 512.498 147.464C512.498 145.864 512.743 144.403 513.234 143.08C513.724 141.757 514.514 140.595 515.602 139.592C516.711 138.568 518.194 137.715 520.05 137.032C521.33 136.563 522.855 136.147 524.626 135.784C526.396 135.421 528.402 135.08 530.642 134.76C532.882 134.419 535.346 134.045 538.034 133.64L534.898 135.368C534.898 133.32 534.407 131.816 533.426 130.856C532.444 129.896 530.802 129.416 528.498 129.416C527.218 129.416 525.884 129.725 524.498 130.344C523.111 130.963 522.14 132.061 521.586 133.64L513.714 131.144C514.588 128.285 516.231 125.96 518.642 124.168C521.052 122.376 524.338 121.48 528.498 121.48C531.548 121.48 534.258 121.949 536.626 122.888C538.994 123.827 540.786 125.448 542.002 127.752C542.684 129.032 543.09 130.312 543.218 131.592C543.346 132.872 543.41 134.301 543.41 135.88V157H535.794V149.896L536.882 151.368C535.196 153.693 533.372 155.379 531.41 156.424C529.468 157.448 527.004 157.96 524.018 157.96ZM525.874 151.112C527.474 151.112 528.818 150.835 529.906 150.28C531.015 149.704 531.89 149.053 532.53 148.328C533.191 147.603 533.639 146.995 533.874 146.504C534.322 145.565 534.578 144.477 534.642 143.24C534.727 141.981 534.77 140.936 534.77 140.104L537.33 140.744C534.748 141.171 532.658 141.533 531.058 141.832C529.458 142.109 528.167 142.365 527.186 142.6C526.204 142.835 525.34 143.091 524.594 143.368C523.74 143.709 523.047 144.083 522.514 144.488C522.002 144.872 521.618 145.299 521.362 145.768C521.127 146.237 521.01 146.76 521.01 147.336C521.01 148.125 521.202 148.808 521.586 149.384C521.991 149.939 522.556 150.365 523.282 150.664C524.007 150.963 524.871 151.112 525.874 151.112ZM552.37 157V109.96H561.074V157H552.37ZM591.404 157C589.014 157.448 586.668 157.64 584.364 157.576C582.081 157.533 580.033 157.139 578.22 156.392C576.428 155.624 575.062 154.397 574.124 152.712C573.27 151.133 572.822 149.533 572.78 147.912C572.737 146.269 572.716 144.413 572.716 142.344V112.84H581.42V141.832C581.42 143.176 581.43 144.392 581.452 145.48C581.494 146.547 581.718 147.4 582.124 148.04C582.892 149.256 584.118 149.917 585.804 150.024C587.489 150.131 589.356 150.045 591.404 149.768V157ZM566.828 129.16V122.44H591.404V129.16H566.828ZM622.657 157V140.68C622.657 139.891 622.614 138.888 622.529 137.672C622.444 136.435 622.177 135.197 621.729 133.96C621.281 132.723 620.545 131.688 619.521 130.856C618.518 130.024 617.089 129.608 615.233 129.608C614.486 129.608 613.686 129.725 612.833 129.96C611.98 130.195 611.18 130.653 610.433 131.336C609.686 131.997 609.068 132.979 608.577 134.28C608.108 135.581 607.873 137.309 607.873 139.464L602.881 137.096C602.881 134.365 603.436 131.805 604.545 129.416C605.654 127.027 607.318 125.096 609.537 123.624C611.777 122.152 614.593 121.416 617.985 121.416C620.694 121.416 622.902 121.875 624.609 122.792C626.316 123.709 627.638 124.872 628.577 126.28C629.537 127.688 630.22 129.16 630.625 130.696C631.03 132.211 631.276 133.597 631.361 134.856C631.446 136.115 631.489 137.032 631.489 137.608V157H622.657ZM599.041 157V110.92H606.785V134.6H607.873V157H599.041ZM649.405 157L663.485 110.92H676.477L690.557 157H681.597L669.053 116.36H670.717L658.365 157H649.405ZM657.853 147.4V139.272H682.173V147.4H657.853ZM696.933 157V110.92H705.637V157H696.933Z" fill="black"/>
<path d="M334.8 219L344.72 190.2H348.62L358.54 219H355.48L346.06 191.84H347.22L337.86 219H334.8ZM339.22 212.02V209.26H354.1V212.02H339.22ZM361.636 219L371.556 190.2H375.456L385.376 219H382.316L372.896 191.84H374.056L364.696 219H361.636ZM366.056 212.02V209.26H380.936V212.02H366.056ZM388.472 219L398.392 190.2H402.292L412.212 219H409.152L399.732 191.84H400.892L391.532 219H388.472ZM392.892 212.02V209.26H407.772V212.02H392.892ZM416.223 219V190.2H419.163V219H416.223ZM432.439 190.2H435.459L427.779 219H424.759L432.439 190.2ZM438.667 219L448.587 190.2H452.487L462.407 219H459.347L449.927 191.84H451.087L441.727 219H438.667ZM443.087 212.02V209.26H457.967V212.02H443.087ZM476.898 219.6C474.031 219.6 471.611 218.967 469.638 217.7C467.664 216.42 466.171 214.653 465.158 212.4C464.144 210.147 463.638 207.547 463.638 204.6C463.638 201.653 464.144 199.053 465.158 196.8C466.171 194.547 467.664 192.787 469.638 191.52C471.611 190.24 474.031 189.6 476.898 189.6C480.244 189.6 482.978 190.46 485.098 192.18C487.218 193.887 488.671 196.18 489.458 199.06L486.458 199.84C485.844 197.56 484.744 195.753 483.158 194.42C481.571 193.087 479.484 192.42 476.898 192.42C474.644 192.42 472.771 192.933 471.278 193.96C469.784 194.987 468.658 196.42 467.898 198.26C467.151 200.087 466.764 202.2 466.738 204.6C466.724 207 467.091 209.113 467.838 210.94C468.598 212.767 469.731 214.2 471.238 215.24C472.758 216.267 474.644 216.78 476.898 216.78C479.484 216.78 481.571 216.113 483.158 214.78C484.744 213.433 485.844 211.627 486.458 209.36L489.458 210.14C488.671 213.02 487.218 215.32 485.098 217.04C482.978 218.747 480.244 219.6 476.898 219.6ZM493.87 219V190.2H496.57L507.89 214.42L519.15 190.2H521.89V218.98H519.09V196.76L508.83 219H506.93L496.69 196.76V219H493.87ZM533.511 219L543.431 190.2H547.331L557.251 219H554.191L544.771 191.84H545.931L536.571 219H533.511ZM537.931 212.02V209.26H552.811V212.02H537.931ZM561.263 219V190.2H564.203V219H561.263ZM570.198 219V190.2H588.198V193.02H573.138V202.98H585.798V205.8H573.138V216.18H588.198V219H570.198ZM601.956 219.6C599.943 219.6 598.13 219.267 596.516 218.6C594.916 217.92 593.59 216.96 592.536 215.72C591.496 214.48 590.816 213.007 590.496 211.3L593.496 210.8C593.976 212.667 594.99 214.133 596.536 215.2C598.083 216.253 599.93 216.78 602.076 216.78C603.49 216.78 604.756 216.56 605.876 216.12C606.996 215.667 607.876 215.027 608.516 214.2C609.156 213.373 609.476 212.393 609.476 211.26C609.476 210.513 609.343 209.88 609.076 209.36C608.81 208.827 608.456 208.387 608.016 208.04C607.576 207.693 607.096 207.407 606.576 207.18C606.056 206.94 605.55 206.747 605.056 206.6L597.756 204.42C596.876 204.167 596.063 203.847 595.316 203.46C594.57 203.06 593.916 202.587 593.356 202.04C592.81 201.48 592.383 200.827 592.076 200.08C591.77 199.333 591.616 198.48 591.616 197.52C591.616 195.893 592.043 194.487 592.896 193.3C593.75 192.113 594.916 191.2 596.396 190.56C597.876 189.92 599.563 189.607 601.456 189.62C603.376 189.62 605.09 189.96 606.596 190.64C608.116 191.32 609.37 192.293 610.356 193.56C611.343 194.813 611.996 196.3 612.316 198.02L609.236 198.58C609.036 197.327 608.576 196.24 607.856 195.32C607.136 194.4 606.216 193.693 605.096 193.2C603.99 192.693 602.77 192.433 601.436 192.42C600.143 192.42 598.99 192.64 597.976 193.08C596.976 193.507 596.183 194.093 595.596 194.84C595.01 195.587 594.716 196.44 594.716 197.4C594.716 198.373 594.983 199.153 595.516 199.74C596.063 200.327 596.73 200.787 597.516 201.12C598.316 201.453 599.09 201.727 599.836 201.94L605.476 203.6C606.063 203.76 606.75 203.993 607.536 204.3C608.336 204.593 609.11 205.02 609.856 205.58C610.616 206.127 611.243 206.847 611.736 207.74C612.23 208.633 612.476 209.767 612.476 211.14C612.476 212.473 612.21 213.667 611.676 214.72C611.156 215.773 610.416 216.66 609.456 217.38C608.51 218.1 607.396 218.647 606.116 219.02C604.85 219.407 603.463 219.6 601.956 219.6ZM623.813 218.98L623.833 216.3L636.853 204.54C637.973 203.527 638.713 202.567 639.073 201.66C639.446 200.74 639.633 199.78 639.633 198.78C639.633 197.593 639.353 196.52 638.793 195.56C638.233 194.6 637.479 193.84 636.533 193.28C635.586 192.707 634.526 192.42 633.353 192.42C632.126 192.42 631.033 192.713 630.073 193.3C629.113 193.887 628.353 194.66 627.793 195.62C627.246 196.58 626.979 197.627 626.993 198.76H623.993C623.993 197.013 624.406 195.447 625.233 194.06C626.059 192.673 627.179 191.587 628.593 190.8C630.006 190 631.606 189.6 633.393 189.6C635.139 189.6 636.706 190.013 638.093 190.84C639.493 191.653 640.593 192.76 641.393 194.16C642.206 195.547 642.613 197.093 642.613 198.8C642.613 200 642.466 201.06 642.173 201.98C641.893 202.887 641.446 203.733 640.833 204.52C640.233 205.293 639.466 206.093 638.533 206.92L626.973 217.36L626.513 216.16H642.613V218.98H623.813ZM656.825 219.6C655.052 219.6 653.452 219.187 652.025 218.36C650.612 217.533 649.492 216.413 648.665 215C647.838 213.573 647.425 211.973 647.425 210.2V199C647.425 197.227 647.838 195.633 648.665 194.22C649.492 192.793 650.612 191.667 652.025 190.84C653.452 190.013 655.052 189.6 656.825 189.6C658.598 189.6 660.192 190.013 661.605 190.84C663.032 191.667 664.158 192.793 664.985 194.22C665.812 195.633 666.225 197.227 666.225 199V210.2C666.225 211.973 665.812 213.573 664.985 215C664.158 216.413 663.032 217.533 661.605 218.36C660.192 219.187 658.598 219.6 656.825 219.6ZM656.825 216.76C658.012 216.76 659.092 216.473 660.065 215.9C661.038 215.313 661.812 214.533 662.385 213.56C662.958 212.587 663.245 211.513 663.245 210.34V198.86C663.245 197.673 662.958 196.593 662.385 195.62C661.812 194.647 661.038 193.873 660.065 193.3C659.092 192.713 658.012 192.42 656.825 192.42C655.638 192.42 654.558 192.713 653.585 193.3C652.612 193.873 651.838 194.647 651.265 195.62C650.692 196.593 650.405 197.673 650.405 198.86V210.34C650.405 211.513 650.692 212.587 651.265 213.56C651.838 214.533 652.612 215.313 653.585 215.9C654.558 216.473 655.638 216.76 656.825 216.76ZM671.039 218.98L671.059 216.3L684.079 204.54C685.199 203.527 685.939 202.567 686.299 201.66C686.672 200.74 686.859 199.78 686.859 198.78C686.859 197.593 686.579 196.52 686.019 195.56C685.459 194.6 684.706 193.84 683.759 193.28C682.812 192.707 681.752 192.42 680.579 192.42C679.352 192.42 678.259 192.713 677.299 193.3C676.339 193.887 675.579 194.66 675.019 195.62C674.472 196.58 674.206 197.627 674.219 198.76H671.219C671.219 197.013 671.632 195.447 672.459 194.06C673.286 192.673 674.406 191.587 675.819 190.8C677.232 190 678.832 189.6 680.619 189.6C682.366 189.6 683.932 190.013 685.319 190.84C686.719 191.653 687.819 192.76 688.619 194.16C689.432 195.547 689.839 197.093 689.839 198.8C689.839 200 689.692 201.06 689.399 201.98C689.119 202.887 688.672 203.733 688.059 204.52C687.459 205.293 686.692 206.093 685.759 206.92L674.199 217.36L673.739 216.16H689.839V218.98H671.039ZM704.392 219.6C702.592 219.6 700.952 219.167 699.472 218.3C698.005 217.42 696.832 216.233 695.952 214.74C695.085 213.233 694.652 211.54 694.652 209.66V199.68C694.652 197.747 695.085 196.027 695.952 194.52C696.818 193 697.998 191.807 699.492 190.94C700.998 190.06 702.705 189.62 704.612 189.62C706.252 189.62 707.772 189.98 709.172 190.7C710.585 191.42 711.738 192.427 712.632 193.72L710.372 195.58C709.758 194.62 708.945 193.853 707.932 193.28C706.918 192.707 705.812 192.42 704.612 192.42C703.265 192.42 702.065 192.747 701.012 193.4C699.958 194.053 699.132 194.913 698.532 195.98C697.932 197.033 697.632 198.18 697.632 199.42V205.7L696.892 204.86C697.732 203.54 698.832 202.473 700.192 201.66C701.565 200.847 703.058 200.44 704.672 200.44C706.458 200.44 708.065 200.867 709.492 201.72C710.918 202.56 712.052 203.7 712.892 205.14C713.732 206.58 714.152 208.193 714.152 209.98C714.152 211.753 713.705 213.367 712.812 214.82C711.932 216.273 710.752 217.433 709.272 218.3C707.805 219.167 706.178 219.6 704.392 219.6ZM704.392 216.74C705.645 216.74 706.785 216.44 707.812 215.84C708.852 215.24 709.672 214.427 710.272 213.4C710.885 212.373 711.192 211.233 711.192 209.98C711.192 208.727 710.885 207.587 710.272 206.56C709.672 205.52 708.858 204.7 707.832 204.1C706.805 203.487 705.665 203.18 704.412 203.18C703.158 203.18 702.018 203.487 700.992 204.1C699.965 204.7 699.145 205.52 698.532 206.56C697.932 207.587 697.632 208.727 697.632 209.98C697.632 211.22 697.932 212.353 698.532 213.38C699.132 214.407 699.945 215.227 700.972 215.84C701.998 216.44 703.138 216.74 704.392 216.74ZM733.644 219L725.324 190.2H728.384L735.124 213.98L741.824 190.22L744.904 190.2L751.644 213.98L758.344 190.2H761.424L753.124 219H750.164L743.364 195.38L736.604 219H733.644ZM771.523 219.6C769.376 219.6 767.543 219.113 766.023 218.14C764.503 217.167 763.336 215.82 762.523 214.1C761.71 212.38 761.303 210.407 761.303 208.18C761.303 205.913 761.716 203.927 762.543 202.22C763.37 200.513 764.543 199.187 766.063 198.24C767.596 197.28 769.416 196.8 771.523 196.8C773.683 196.8 775.523 197.287 777.043 198.26C778.576 199.22 779.743 200.56 780.543 202.28C781.356 203.987 781.763 205.953 781.763 208.18C781.763 210.447 781.356 212.44 780.543 214.16C779.73 215.867 778.556 217.2 777.023 218.16C775.49 219.12 773.656 219.6 771.523 219.6ZM771.523 216.78C773.923 216.78 775.71 215.987 776.883 214.4C778.056 212.8 778.643 210.727 778.643 208.18C778.643 205.567 778.05 203.487 776.863 201.94C775.69 200.393 773.91 199.62 771.523 199.62C769.91 199.62 768.576 199.987 767.523 200.72C766.483 201.44 765.703 202.447 765.183 203.74C764.676 205.02 764.423 206.5 764.423 208.18C764.423 210.78 765.023 212.867 766.223 214.44C767.423 216 769.19 216.78 771.523 216.78ZM786.175 219V197.4H788.815V202.6L788.295 201.92C788.535 201.28 788.848 200.693 789.235 200.16C789.622 199.613 790.042 199.167 790.495 198.82C791.055 198.327 791.708 197.953 792.455 197.7C793.202 197.433 793.955 197.28 794.715 197.24C795.475 197.187 796.168 197.24 796.795 197.4V200.16C796.008 199.96 795.148 199.913 794.215 200.02C793.282 200.127 792.422 200.5 791.635 201.14C790.915 201.7 790.375 202.373 790.015 203.16C789.655 203.933 789.415 204.76 789.295 205.64C789.175 206.507 789.115 207.367 789.115 208.22V219H786.175ZM800.569 219L800.589 190.2H803.549V207.8L813.189 197.4H817.109L806.989 208.2L818.429 219H814.149L803.549 208.6V219H800.569ZM828.102 219.58C825.569 219.58 823.482 219.033 821.842 217.94C820.216 216.847 819.216 215.327 818.842 213.38L821.842 212.88C822.162 214.107 822.889 215.087 824.022 215.82C825.169 216.54 826.582 216.9 828.262 216.9C829.902 216.9 831.196 216.56 832.142 215.88C833.089 215.187 833.562 214.247 833.562 213.06C833.562 212.393 833.409 211.853 833.102 211.44C832.809 211.013 832.202 210.62 831.282 210.26C830.362 209.9 828.989 209.473 827.162 208.98C825.202 208.447 823.669 207.913 822.562 207.38C821.456 206.847 820.669 206.233 820.202 205.54C819.736 204.833 819.502 203.973 819.502 202.96C819.502 201.733 819.849 200.66 820.542 199.74C821.236 198.807 822.196 198.087 823.422 197.58C824.649 197.06 826.076 196.8 827.702 196.8C829.329 196.8 830.782 197.067 832.062 197.6C833.356 198.12 834.396 198.853 835.182 199.8C835.969 200.747 836.436 201.847 836.582 203.1L833.582 203.64C833.382 202.373 832.749 201.373 831.682 200.64C830.629 199.893 829.289 199.507 827.662 199.48C826.129 199.44 824.882 199.733 823.922 200.36C822.962 200.973 822.482 201.793 822.482 202.82C822.482 203.393 822.656 203.887 823.002 204.3C823.349 204.7 823.976 205.08 824.882 205.44C825.802 205.8 827.109 206.193 828.802 206.62C830.789 207.127 832.349 207.66 833.482 208.22C834.616 208.78 835.422 209.44 835.902 210.2C836.382 210.96 836.622 211.9 836.622 213.02C836.622 215.06 835.862 216.667 834.342 217.84C832.836 219 830.756 219.58 828.102 219.58ZM856.658 219V207.98C856.658 206.78 856.544 205.68 856.318 204.68C856.091 203.667 855.724 202.787 855.218 202.04C854.724 201.28 854.078 200.693 853.278 200.28C852.491 199.867 851.531 199.66 850.398 199.66C849.358 199.66 848.438 199.84 847.638 200.2C846.851 200.56 846.184 201.08 845.638 201.76C845.104 202.427 844.698 203.24 844.418 204.2C844.138 205.16 843.998 206.253 843.998 207.48L841.918 207.02C841.918 204.807 842.304 202.947 843.078 201.44C843.851 199.933 844.918 198.793 846.278 198.02C847.638 197.247 849.198 196.86 850.958 196.86C852.251 196.86 853.378 197.06 854.338 197.46C855.311 197.86 856.131 198.4 856.798 199.08C857.478 199.76 858.024 200.54 858.438 201.42C858.851 202.287 859.151 203.213 859.338 204.2C859.524 205.173 859.618 206.147 859.618 207.12V219H856.658ZM841.038 219V190.2H843.698V206.46H843.998V219H841.038ZM873.828 219.6C871.681 219.6 869.848 219.113 868.328 218.14C866.808 217.167 865.641 215.82 864.828 214.1C864.014 212.38 863.608 210.407 863.608 208.18C863.608 205.913 864.021 203.927 864.848 202.22C865.674 200.513 866.848 199.187 868.368 198.24C869.901 197.28 871.721 196.8 873.828 196.8C875.988 196.8 877.828 197.287 879.348 198.26C880.881 199.22 882.048 200.56 882.848 202.28C883.661 203.987 884.068 205.953 884.068 208.18C884.068 210.447 883.661 212.44 882.848 214.16C882.034 215.867 880.861 217.2 879.328 218.16C877.794 219.12 875.961 219.6 873.828 219.6ZM873.828 216.78C876.228 216.78 878.014 215.987 879.188 214.4C880.361 212.8 880.948 210.727 880.948 208.18C880.948 205.567 880.354 203.487 879.168 201.94C877.994 200.393 876.214 199.62 873.828 199.62C872.214 199.62 870.881 199.987 869.828 200.72C868.788 201.44 868.008 202.447 867.488 203.74C866.981 205.02 866.728 206.5 866.728 208.18C866.728 210.78 867.328 212.867 868.528 214.44C869.728 216 871.494 216.78 873.828 216.78ZM898.18 219.6C896.193 219.6 894.513 219.1 893.14 218.1C891.766 217.087 890.726 215.72 890.02 214C889.313 212.267 888.96 210.327 888.96 208.18C888.96 205.993 889.313 204.047 890.02 202.34C890.74 200.62 891.793 199.267 893.18 198.28C894.566 197.293 896.273 196.8 898.3 196.8C900.273 196.8 901.966 197.3 903.38 198.3C904.793 199.3 905.873 200.66 906.62 202.38C907.38 204.1 907.76 206.033 907.76 208.18C907.76 210.34 907.38 212.28 906.62 214C905.86 215.72 904.766 217.087 903.34 218.1C901.913 219.1 900.193 219.6 898.18 219.6ZM888.46 228.6V197.4H891.1V213.66H891.42V228.6H888.46ZM897.88 216.86C899.386 216.86 900.64 216.48 901.64 215.72C902.64 214.96 903.386 213.927 903.88 212.62C904.386 211.3 904.64 209.82 904.64 208.18C904.64 206.553 904.393 205.087 903.9 203.78C903.406 202.473 902.653 201.44 901.64 200.68C900.64 199.92 899.366 199.54 897.82 199.54C896.313 199.54 895.06 199.907 894.06 200.64C893.073 201.373 892.333 202.393 891.84 203.7C891.346 204.993 891.1 206.487 891.1 208.18C891.1 209.847 891.346 211.34 891.84 212.66C892.333 213.967 893.08 214.993 894.08 215.74C895.08 216.487 896.346 216.86 897.88 216.86Z" fill="black"/>
<path d="M23.5523 91.861C25.0989 89.2318 28.9011 89.2319 30.4477 91.861L46.8367 119.722C48.4053 122.388 46.4826 125.75 43.389 125.75H10.611C7.51735 125.75 5.59473 122.388 7.16331 119.722L23.5523 91.861Z" fill="#090909"/>
<path d="M23.0359 107C24.5755 104.333 28.4245 104.333 29.9641 107L33.8612 113.75C35.4008 116.417 33.4763 119.75 30.3971 119.75H22.6029C19.5237 119.75 17.5992 116.417 19.1388 113.75L23.0359 107Z" fill="white"/>
<path d="M261.5 97.5C265 99.001 273 113.5 273.5 116.5C272.416 119.862 267 131.499 265 134C261.5 134.5 246.387 136.742 242.5 136.5C238.992 134.419 234.396 128.597 232.5 125C228.471 126.334 227.38 127.026 223.327 128.334C176.446 143.454 123.86 143.916 75.6953 134.944C62.0958 132.411 52.1281 129.338 39.5322 123.808C39.4343 123.947 39.3345 124.084 39.2363 124.22C40.7488 121.675 41.6132 118.732 41.6133 115.596C41.6133 115.261 41.6024 114.929 41.583 114.599C58.1451 121.512 75.5614 126.168 93.3652 128.437C124.912 132.85 156.949 132.438 188.372 127.218C203.361 124.71 215.859 121.186 230 115.5C233 113 237.116 100.168 240 98.5C245 97.4996 256.608 97.5639 261.5 97.5Z" fill="#090909"/>
<path d="M246.894 106.024C249.411 105.907 254.821 106.248 257.54 106.335C259.272 109.656 261.089 112.928 263 116.149C262.078 118.807 259.508 122.961 257.97 125.404C257.344 126.399 257.191 126.251 256.239 126.384C244.517 128.062 244.098 126.82 240 116.194C241.282 113.365 243.862 106.965 246.894 106.024Z" fill="#FDFDFD"/>
</svg>
